<mxfile host="app.diagrams.net" modified="2023-03-28T12:36:28.282Z" agent="Mozilla/5.0 (Windows NT 10.0; Win64; x64) AppleWebKit/537.36 (KHTML, like Gecko) Chrome/111.0.0.0 Safari/537.36" version="21.1.1" etag="C0pQFmkT2K0ejWIxMLrN" type="github">
  <diagram name="Page-1" id="9J1H5VACT-_5rG9NcFkW">
    <mxGraphModel>
      <root>
        <mxCell id="0" />
        <mxCell id="1" parent="0" />
      </root>
    </mxGraphModel>
  </diagram>
</mxfile>
